# xmcd
#
# Track frame offsets:
#	150
#	21017
#	44894
#	60974
#	79013
#	92470
#	110299
#	131264
#	172722
#	188606
#	201797
#	224300
#	248299
#	274628
#	286330
#
# Disc length: 3951 seconds
#
# Revision: 0
# Processed by: cddbd v1.5.2PL0 Copyright (c) Steve Scherf et al.
# Submitted via: EZCDAudioConverter 2.1.7.1
#
DISCID=b90f6d0f
DTITLE=Quintessence - Move Into The Light 1/2
DYEAR=1900
DGENRE=
TTITLE0=Giants
TTITLE1=Manco Capac
TTITLE2=Body
TTITLE3=Gange Mai
TTITLE4=Chant
TTITLE5=Pearl And Bird
TTITLE6=Notting Hill Gate
TTITLE7=Midnight Mode
TTITLE8=Move Into The Light
TTITLE9=Notting Hill Gate [Single Version]
TTITLE10=Jesus, Buddha, Moses, Guaranga
TTITLE11=Sea Of Immortality
TTITLE12=High On Mount Kailash [Excerpt From Opera]
TTITLE13=Burning Bush [Live]
TTITLE14=Shiva's Chant
EXTD=
EXTT0=
EXTT1=
EXTT2=
EXTT3=
EXTT4=
EXTT5=
EXTT6=
EXTT7=
EXTT8=
EXTT9=
EXTT10=
EXTT11=
EXTT12=
EXTT13=
EXTT14=
PLAYORDER=
